# xmcd
#
# Track frame offsets: 
#        150
#        16995
#        32228
#        49568
#        67695
#        87302
#        103423
#        119510
#        139968
#        154488
#        185196
#
# Disc length: 2867 seconds
#
# Revision: 1
# Processed by: cddbd v1.5.2PL0 Copyright (c) Steve Scherf et al.
# Submitted via: ExactAudioCopy v0.99pb5
#
DISCID=9d0b310b
DTITLE=The Script - The Script
DYEAR=2008
DGENRE=Rock
TTITLE0=We Cry
TTITLE1=Before The Worst
TTITLE2=Talk You Down
TTITLE3=The Man Who Can't Be Moved
TTITLE4=Breakeven
TTITLE5=Rusty Halo
TTITLE6=The End Where I Begin
TTITLE7=Fall For Anything
TTITLE8=If You See Kay
TTITLE9=I`m Yours
TTITLE10=Data Track
EXTD=
EXTT0=
EXTT1=
EXTT2=
EXTT3=
EXTT4=
EXTT5=
EXTT6=
EXTT7=
EXTT8=
EXTT9=
EXTT10=
PLAYORDER=
